<mxfile host="app.diagrams.net" modified="2023-10-05T01:47:42.829Z" agent="Mozilla/5.0 (Macintosh; Intel Mac OS X 10_15_7) AppleWebKit/537.36 (KHTML, like Gecko) Chrome/117.0.0.0 Safari/537.36" etag="QQez2T9m5ZgGHNF2mhPZ" version="22.0.2" type="github">
  <diagram name="Page-1" id="bfe91b75-5d2c-26a0-9c1d-138518896778">
    <mxGraphModel dx="1771" dy="-1299" grid="1" gridSize="10" guides="1" tooltips="1" connect="1" arrows="1" fold="1" page="1" pageScale="1" pageWidth="1100" pageHeight="850" background="none" math="0" shadow="0">
      <root>
        <mxCell id="0" />
        <mxCell id="1" parent="0" />
        <mxCell id="ukIKPiVlnT3oN5EHTZaJ-1" value="" style="fontColor=#0066CC;verticalAlign=top;verticalLabelPosition=bottom;labelPosition=center;align=center;html=1;outlineConnect=0;fillColor=#CCCCCC;strokeColor=#6881B3;gradientColor=none;gradientDirection=north;strokeWidth=2;shape=mxgraph.networks.user_male;" vertex="1" parent="1">
          <mxGeometry x="10" y="2110" width="24" height="60" as="geometry" />
        </mxCell>
        <mxCell id="ukIKPiVlnT3oN5EHTZaJ-2" value="" style="fontColor=#0066CC;verticalAlign=top;verticalLabelPosition=bottom;labelPosition=center;align=center;html=1;outlineConnect=0;fillColor=#CCCCCC;strokeColor=#6881B3;gradientColor=none;gradientDirection=north;strokeWidth=2;shape=mxgraph.networks.pc;" vertex="1" parent="1">
          <mxGeometry x="84" y="2122.5" width="50" height="35" as="geometry" />
        </mxCell>
        <mxCell id="ukIKPiVlnT3oN5EHTZaJ-3" value="" style="fontColor=#0066CC;verticalAlign=top;verticalLabelPosition=bottom;labelPosition=center;align=center;html=1;outlineConnect=0;fillColor=#CCCCCC;strokeColor=#6881B3;gradientColor=none;gradientDirection=north;strokeWidth=2;shape=mxgraph.networks.web_server;" vertex="1" parent="1">
          <mxGeometry x="177" y="2025" width="55" height="55" as="geometry" />
        </mxCell>
        <mxCell id="ukIKPiVlnT3oN5EHTZaJ-12" value="" style="shape=cube;whiteSpace=wrap;html=1;boundedLbl=1;backgroundOutline=1;darkOpacity=0.05;darkOpacity2=0.1;size=10;" vertex="1" parent="1">
          <mxGeometry x="320" y="2010" width="270" height="240" as="geometry" />
        </mxCell>
        <mxCell id="ukIKPiVlnT3oN5EHTZaJ-15" value="&lt;font style=&quot;font-size: 10px;&quot;&gt;&lt;b&gt;Server 1..N&lt;/b&gt;&lt;/font&gt;" style="text;html=1;strokeColor=none;fillColor=none;align=center;verticalAlign=middle;whiteSpace=wrap;rounded=0;" vertex="1" parent="1">
          <mxGeometry x="517" y="2010" width="90" height="30" as="geometry" />
        </mxCell>
        <mxCell id="ukIKPiVlnT3oN5EHTZaJ-4" value="" style="fontColor=#0066CC;verticalAlign=top;verticalLabelPosition=bottom;labelPosition=center;align=center;html=1;outlineConnect=0;fillColor=#CCCCCC;strokeColor=#6881B3;gradientColor=none;gradientDirection=north;strokeWidth=2;shape=mxgraph.networks.firewall;" vertex="1" parent="1">
          <mxGeometry x="330" y="2120" width="40" height="40" as="geometry" />
        </mxCell>
        <mxCell id="ukIKPiVlnT3oN5EHTZaJ-19" value="" style="rounded=0;whiteSpace=wrap;html=1;" vertex="1" parent="1">
          <mxGeometry x="400" y="2040" width="180" height="200" as="geometry" />
        </mxCell>
        <mxCell id="ukIKPiVlnT3oN5EHTZaJ-16" value="&lt;p style=&quot;line-height: 70%;&quot;&gt;&lt;br&gt;&lt;/p&gt;" style="fontColor=#0066CC;verticalAlign=top;verticalLabelPosition=bottom;labelPosition=center;align=center;html=1;outlineConnect=0;fillColor=#CCCCCC;strokeColor=#6881B3;gradientColor=none;gradientDirection=north;strokeWidth=2;shape=mxgraph.networks.proxy_server;" vertex="1" parent="1">
          <mxGeometry x="441" y="2112.5" width="55" height="55" as="geometry" />
        </mxCell>
        <mxCell id="ukIKPiVlnT3oN5EHTZaJ-17" value="" style="fontColor=#0066CC;verticalAlign=top;verticalLabelPosition=bottom;labelPosition=center;align=center;html=1;outlineConnect=0;fillColor=#CCCCCC;strokeColor=#6881B3;gradientColor=none;gradientDirection=north;strokeWidth=2;shape=mxgraph.networks.server;" vertex="1" parent="1">
          <mxGeometry x="520" y="2067" width="45" height="50" as="geometry" />
        </mxCell>
        <mxCell id="ukIKPiVlnT3oN5EHTZaJ-18" value="" style="fontColor=#0066CC;verticalAlign=top;verticalLabelPosition=bottom;labelPosition=center;align=center;html=1;outlineConnect=0;fillColor=#CCCCCC;strokeColor=#6881B3;gradientColor=none;gradientDirection=north;strokeWidth=2;shape=mxgraph.networks.server;" vertex="1" parent="1">
          <mxGeometry x="520" y="2170" width="45" height="50" as="geometry" />
        </mxCell>
        <mxCell id="ukIKPiVlnT3oN5EHTZaJ-20" value="&lt;font style=&quot;font-size: 10px;&quot;&gt;&lt;b&gt;LXC instances 1..M&lt;/b&gt;&lt;/font&gt;" style="text;html=1;strokeColor=none;fillColor=none;align=center;verticalAlign=middle;whiteSpace=wrap;rounded=0;" vertex="1" parent="1">
          <mxGeometry x="486" y="2031" width="94" height="30" as="geometry" />
        </mxCell>
        <mxCell id="ukIKPiVlnT3oN5EHTZaJ-21" value="" style="shape=crossbar;whiteSpace=wrap;html=1;rounded=1;direction=south;" vertex="1" parent="1">
          <mxGeometry x="390" y="2070" width="20" height="50" as="geometry" />
        </mxCell>
        <mxCell id="ukIKPiVlnT3oN5EHTZaJ-24" value="" style="shape=crossbar;whiteSpace=wrap;html=1;rounded=1;direction=south;" vertex="1" parent="1">
          <mxGeometry x="390" y="2125" width="20" height="50" as="geometry" />
        </mxCell>
        <mxCell id="ukIKPiVlnT3oN5EHTZaJ-27" value="&lt;p style=&quot;line-height: 70%;&quot;&gt;&lt;font style=&quot;font-size: 8px;&quot;&gt;http: &lt;br&gt;80, &lt;br&gt;10000..10099,&lt;br&gt;31000..31099&lt;br&gt;&lt;/font&gt;&lt;/p&gt;" style="text;html=1;strokeColor=none;fillColor=none;align=right;verticalAlign=middle;whiteSpace=wrap;rounded=0;" vertex="1" parent="1">
          <mxGeometry x="357" y="2132.5" width="70" height="30" as="geometry" />
        </mxCell>
        <mxCell id="ukIKPiVlnT3oN5EHTZaJ-28" value="&lt;p style=&quot;line-height: 70%;&quot;&gt;&lt;font style=&quot;font-size: 8px;&quot;&gt;https: &lt;br&gt;443, &lt;br&gt;9000..9099,&lt;br&gt;30000..30099&lt;br&gt;&lt;/font&gt;&lt;/p&gt;" style="text;html=1;strokeColor=none;fillColor=none;align=right;verticalAlign=middle;whiteSpace=wrap;rounded=0;" vertex="1" parent="1">
          <mxGeometry x="362" y="2078" width="70" height="30" as="geometry" />
        </mxCell>
        <mxCell id="ukIKPiVlnT3oN5EHTZaJ-29" value="" style="shape=crossbar;whiteSpace=wrap;html=1;rounded=1;direction=south;" vertex="1" parent="1">
          <mxGeometry x="390" y="2190" width="20" height="30" as="geometry" />
        </mxCell>
        <mxCell id="ukIKPiVlnT3oN5EHTZaJ-30" value="&lt;p style=&quot;line-height: 70%;&quot;&gt;&lt;font style=&quot;font-size: 8px;&quot;&gt;ssh: &lt;br&gt;20000..20099&lt;br&gt;&lt;/font&gt;&lt;/p&gt;" style="text;html=1;strokeColor=none;fillColor=none;align=right;verticalAlign=middle;whiteSpace=wrap;rounded=0;" vertex="1" parent="1">
          <mxGeometry x="357" y="2190" width="70" height="30" as="geometry" />
        </mxCell>
        <mxCell id="ukIKPiVlnT3oN5EHTZaJ-34" value="&lt;div style=&quot;font-size: 8px;&quot;&gt;&lt;font style=&quot;font-size: 8px;&quot;&gt;Instance:&lt;/font&gt;&lt;/div&gt;&lt;div style=&quot;font-size: 8px;&quot;&gt;&lt;font style=&quot;font-size: 8px;&quot;&gt;reverse proxy server (nginx)&lt;/font&gt;&lt;/div&gt;" style="text;html=1;strokeColor=none;fillColor=none;align=center;verticalAlign=middle;whiteSpace=wrap;rounded=0;" vertex="1" parent="1">
          <mxGeometry x="436" y="2166" width="60" height="30" as="geometry" />
        </mxCell>
        <mxCell id="ukIKPiVlnT3oN5EHTZaJ-35" value="&lt;font style=&quot;font-size: 8px;&quot;&gt;Instance 1&lt;/font&gt;" style="text;html=1;strokeColor=none;fillColor=none;align=center;verticalAlign=middle;whiteSpace=wrap;rounded=0;" vertex="1" parent="1">
          <mxGeometry x="512.5" y="2110" width="60" height="30" as="geometry" />
        </mxCell>
        <mxCell id="ukIKPiVlnT3oN5EHTZaJ-36" value="&lt;font style=&quot;font-size: 8px;&quot;&gt;Instance M&lt;/font&gt;" style="text;html=1;strokeColor=none;fillColor=none;align=center;verticalAlign=middle;whiteSpace=wrap;rounded=0;" vertex="1" parent="1">
          <mxGeometry x="512.5" y="2210" width="60" height="30" as="geometry" />
        </mxCell>
        <mxCell id="ukIKPiVlnT3oN5EHTZaJ-37" value="&lt;font style=&quot;font-size: 8px;&quot;&gt;User&lt;/font&gt;" style="text;html=1;strokeColor=none;fillColor=none;align=center;verticalAlign=middle;whiteSpace=wrap;rounded=0;" vertex="1" parent="1">
          <mxGeometry x="-8" y="2162.5" width="60" height="30" as="geometry" />
        </mxCell>
        <mxCell id="ukIKPiVlnT3oN5EHTZaJ-38" value="&lt;font style=&quot;font-size: 8px;&quot;&gt;Browser/Terminal&lt;/font&gt;" style="text;html=1;strokeColor=none;fillColor=none;align=center;verticalAlign=middle;whiteSpace=wrap;rounded=0;" vertex="1" parent="1">
          <mxGeometry x="84" y="2150" width="60" height="30" as="geometry" />
        </mxCell>
        <mxCell id="ukIKPiVlnT3oN5EHTZaJ-39" value="&lt;font style=&quot;font-size: 8px;&quot;&gt;DNS server&lt;/font&gt;" style="text;html=1;strokeColor=none;fillColor=none;align=center;verticalAlign=middle;whiteSpace=wrap;rounded=0;" vertex="1" parent="1">
          <mxGeometry x="148" y="2067" width="60" height="30" as="geometry" />
        </mxCell>
        <mxCell id="ukIKPiVlnT3oN5EHTZaJ-40" value="" style="endArrow=none;dashed=1;html=1;dashPattern=1 3;strokeWidth=2;rounded=0;" edge="1" parent="1">
          <mxGeometry width="50" height="50" relative="1" as="geometry">
            <mxPoint x="280" y="2280" as="sourcePoint" />
            <mxPoint x="280" y="2000" as="targetPoint" />
          </mxGeometry>
        </mxCell>
        <mxCell id="ukIKPiVlnT3oN5EHTZaJ-41" value="&lt;font style=&quot;font-size: 8px;&quot;&gt;http/https&lt;/font&gt;" style="text;html=1;strokeColor=none;fillColor=none;align=center;verticalAlign=middle;whiteSpace=wrap;rounded=0;" vertex="1" parent="1">
          <mxGeometry x="250" y="1980" width="60" height="30" as="geometry" />
        </mxCell>
        <mxCell id="ukIKPiVlnT3oN5EHTZaJ-42" value="" style="endArrow=classic;startArrow=classic;html=1;rounded=0;" edge="1" parent="1" source="ukIKPiVlnT3oN5EHTZaJ-54" target="ukIKPiVlnT3oN5EHTZaJ-4">
          <mxGeometry width="50" height="50" relative="1" as="geometry">
            <mxPoint x="250" y="2190" as="sourcePoint" />
            <mxPoint x="300" y="2140" as="targetPoint" />
          </mxGeometry>
        </mxCell>
        <mxCell id="ukIKPiVlnT3oN5EHTZaJ-46" value="&lt;font style=&quot;font-size: 8px;&quot;&gt;Firewall&lt;/font&gt;" style="text;html=1;strokeColor=none;fillColor=none;align=center;verticalAlign=middle;whiteSpace=wrap;rounded=0;" vertex="1" parent="1">
          <mxGeometry x="320" y="2150" width="60" height="30" as="geometry" />
        </mxCell>
        <mxCell id="ukIKPiVlnT3oN5EHTZaJ-47" value="&lt;font style=&quot;font-size: 10px;&quot;&gt;&lt;b&gt;Port devices:&lt;/b&gt;&lt;/font&gt;" style="text;html=1;strokeColor=none;fillColor=none;align=center;verticalAlign=middle;whiteSpace=wrap;rounded=0;" vertex="1" parent="1">
          <mxGeometry x="397" y="2049" width="70" height="30" as="geometry" />
        </mxCell>
        <mxCell id="ukIKPiVlnT3oN5EHTZaJ-48" value="" style="endArrow=classic;startArrow=classic;html=1;rounded=0;strokeColor=default;jumpStyle=none;" edge="1" parent="1" source="ukIKPiVlnT3oN5EHTZaJ-4" target="ukIKPiVlnT3oN5EHTZaJ-16">
          <mxGeometry width="50" height="50" relative="1" as="geometry">
            <mxPoint x="280" y="2050" as="sourcePoint" />
            <mxPoint x="330" y="2000" as="targetPoint" />
          </mxGeometry>
        </mxCell>
        <mxCell id="ukIKPiVlnT3oN5EHTZaJ-49" value="" style="endArrow=classic;startArrow=classic;html=1;rounded=0;" edge="1" parent="1" source="ukIKPiVlnT3oN5EHTZaJ-16" target="ukIKPiVlnT3oN5EHTZaJ-17">
          <mxGeometry width="50" height="50" relative="1" as="geometry">
            <mxPoint x="486" y="2150" as="sourcePoint" />
            <mxPoint x="536" y="2100" as="targetPoint" />
          </mxGeometry>
        </mxCell>
        <mxCell id="ukIKPiVlnT3oN5EHTZaJ-50" value="" style="endArrow=classic;startArrow=classic;html=1;rounded=0;" edge="1" parent="1" source="ukIKPiVlnT3oN5EHTZaJ-16" target="ukIKPiVlnT3oN5EHTZaJ-18">
          <mxGeometry width="50" height="50" relative="1" as="geometry">
            <mxPoint x="250" y="2060" as="sourcePoint" />
            <mxPoint x="300" y="2010" as="targetPoint" />
          </mxGeometry>
        </mxCell>
        <mxCell id="ukIKPiVlnT3oN5EHTZaJ-51" value="" style="endArrow=classic;startArrow=classic;html=1;rounded=0;" edge="1" parent="1" source="ukIKPiVlnT3oN5EHTZaJ-54" target="ukIKPiVlnT3oN5EHTZaJ-3">
          <mxGeometry width="50" height="50" relative="1" as="geometry">
            <mxPoint x="70" y="2080" as="sourcePoint" />
            <mxPoint x="120" y="2030" as="targetPoint" />
          </mxGeometry>
        </mxCell>
        <mxCell id="ukIKPiVlnT3oN5EHTZaJ-52" value="" style="endArrow=classic;startArrow=classic;html=1;rounded=0;" edge="1" parent="1" source="ukIKPiVlnT3oN5EHTZaJ-1" target="ukIKPiVlnT3oN5EHTZaJ-2">
          <mxGeometry width="50" height="50" relative="1" as="geometry">
            <mxPoint x="30" y="2110" as="sourcePoint" />
            <mxPoint x="80" y="2060" as="targetPoint" />
          </mxGeometry>
        </mxCell>
        <mxCell id="ukIKPiVlnT3oN5EHTZaJ-54" value="" style="fontColor=#0066CC;verticalAlign=top;verticalLabelPosition=bottom;labelPosition=center;align=center;html=1;outlineConnect=0;fillColor=#CCCCCC;strokeColor=#6881B3;gradientColor=none;gradientDirection=north;strokeWidth=2;shape=mxgraph.networks.router;" vertex="1" parent="1">
          <mxGeometry x="171.32999999999998" y="2130" width="66.67" height="20" as="geometry" />
        </mxCell>
        <mxCell id="ukIKPiVlnT3oN5EHTZaJ-55" value="" style="endArrow=classic;startArrow=classic;html=1;rounded=0;" edge="1" parent="1" source="ukIKPiVlnT3oN5EHTZaJ-2" target="ukIKPiVlnT3oN5EHTZaJ-54">
          <mxGeometry width="50" height="50" relative="1" as="geometry">
            <mxPoint x="170" y="2240" as="sourcePoint" />
            <mxPoint x="220" y="2190" as="targetPoint" />
          </mxGeometry>
        </mxCell>
        <mxCell id="ukIKPiVlnT3oN5EHTZaJ-56" value="&lt;font style=&quot;font-size: 8px;&quot;&gt;Router&lt;/font&gt;" style="text;html=1;strokeColor=none;fillColor=none;align=center;verticalAlign=middle;whiteSpace=wrap;rounded=0;" vertex="1" parent="1">
          <mxGeometry x="171.33" y="2150" width="60" height="30" as="geometry" />
        </mxCell>
      </root>
    </mxGraphModel>
  </diagram>
</mxfile>
